<?xml version="1.0" encoding="utf-8"?>
<!-- Generator: Adobe Illustrator 19.0.0, SVG Export Plug-In . SVG Version: 6.00 Build 0)  -->
<svg version="1.1" id="Layer_1" xmlns="http://www.w3.org/2000/svg" xmlns:xlink="http://www.w3.org/1999/xlink" x="0px" y="0px"
	 viewBox="0 0 65.1 65" style="enable-background:new 0 0 65.1 65;" xml:space="preserve">
<style type="text/css">
	.st0{fill:#55A8C3;}
</style>
<g id="triare-logo-icon">
	<rect x="38" y="0.5" class="st0" width="4" height="3.9"/>
	<path class="st0" d="M54.3,0h-0.2v3.9c3.7,0.1,7.1,3.4,7.1,7.1v43.2c0,3.8-3.4,6.9-7.2,6.9H11c-3.8,0-7-3-7-6.8V11.1
		c0-3.8,3.3-7.2,7-7.2h23.1V0H10.8C4.9,0,0,4.9,0,10.9v43.4C0,60.3,4.8,65,10.8,65h43.5c5.9,0,10.8-4.7,10.8-10.7V10.9
		C65.1,4.8,60.3,0,54.3,0z"/>
	<rect x="46" y="0.5" class="st0" width="4.1" height="3.9"/>
	<rect x="9" y="6.8" class="st0" width="20" height="2.5"/>
	<rect x="9" y="11.9" class="st0" width="14.1" height="2.5"/>
	<rect x="25.1" y="11.9" class="st0" width="12" height="2.5"/>
	<rect x="12" y="17" class="st0" width="11.1" height="2.5"/>
	<rect x="24.1" y="17" class="st0" width="12.9" height="2.5"/>
	<rect x="38" y="17" class="st0" width="6.1" height="2.5"/>
	<rect x="45" y="17" class="st0" width="9.1" height="2.5"/>
	<rect x="15" y="22.1" class="st0" width="8.1" height="2.5"/>
	<rect x="24.1" y="22.1" class="st0" width="9.9" height="2.5"/>
	<rect x="36.2" y="22.1" class="st0" width="11.9" height="2.5"/>
	<rect x="49.1" y="22.1" class="st0" width="6.9" height="2.5"/>
	<rect x="19" y="27.6" class="st0" width="9" height="2.5"/>
	<rect x="29.1" y="27.6" class="st0" width="18.9" height="2.5"/>
	<rect x="49.1" y="27.6" class="st0" width="8" height="2.5"/>
	<rect x="23.1" y="33.1" class="st0" width="4" height="2.5"/>
	<rect x="28.1" y="33.1" class="st0" width="13" height="2.5"/>
	<rect x="42.1" y="33.1" class="st0" width="5.1" height="2.5"/>
	<rect x="49.1" y="33.1" class="st0" width="8.9" height="2.5"/>
	<rect x="20.1" y="38.6" class="st0" width="4" height="2.5"/>
	<rect x="26.1" y="38.6" class="st0" width="7" height="2.5"/>
	<rect x="35" y="38.6" class="st0" width="16.9" height="2.5"/>
	<rect x="15.1" y="44.1" class="st0" width="18" height="2.5"/>
	<rect x="35.1" y="44.1" class="st0" width="9.9" height="2.5"/>
	<rect x="11.9" y="49.6" class="st0" width="11.2" height="2.5"/>
	<rect x="24.1" y="49.6" class="st0" width="19.9" height="2.5"/>
	<rect x="9" y="55.1" class="st0" width="34.9" height="2.5"/>
	<rect x="47.1" y="55.1" class="st0" width="4.8" height="2.5"/>
</g>
</svg>
